<?xml version="1.0" encoding="iso-8859-1"?>
<!-- Generator: Adobe Illustrator 19.0.0, SVG Export Plug-In . SVG Version: 6.00 Build 0)  -->
<svg version="1.1" id="Capa_1" xmlns="http://www.w3.org/2000/svg" xmlns:xlink="http://www.w3.org/1999/xlink" x="0px" y="0px"
	 viewBox="0 0 512 512" style="enable-background:new 0 0 512 512;" xml:space="preserve">
<path style="fill:#E0230D;" d="M258.781,0.021C398.886,1.504,512,115.545,512,256S398.886,510.496,258.781,511.979L439.887,256
	L258.781,0.021z"/>
<path style="fill:#FF5440;" d="M258.781,0.021C376.119,1.793,470.793,115.72,470.793,256s-94.674,254.207-212.011,255.979
	C257.854,511.99,256.927,512,256,512C114.618,512,0,397.382,0,256S114.618,0,256,0C256.927,0,257.854,0.01,258.781,0.021z
	 M384.258,256c0-70.835-57.422-128.258-128.258-128.258S127.742,185.165,127.742,256S185.165,384.258,256,384.258
	S384.258,326.835,384.258,256z"/>
<g>
</g>
<g>
</g>
<g>
</g>
<g>
</g>
<g>
</g>
<g>
</g>
<g>
</g>
<g>
</g>
<g>
</g>
<g>
</g>
<g>
</g>
<g>
</g>
<g>
</g>
<g>
</g>
<g>
</g>
</svg>
