<?xml version="1.0" encoding="iso-8859-1"?>
<!-- Generator: Adobe Illustrator 19.0.0, SVG Export Plug-In . SVG Version: 6.00 Build 0)  -->
<svg version="1.1" id="Capa_1" xmlns="http://www.w3.org/2000/svg" xmlns:xlink="http://www.w3.org/1999/xlink" x="0px" y="0px"
	 viewBox="0 0 397.232 397.232" style="enable-background:new 0 0 397.232 397.232;" xml:space="preserve">
<polygon style="fill:#5886C5;" points="198.385,56.282 279.761,56.282 279.761,40.282 198.385,40.282 227.356,11.312 216.043,0 
	167.761,48.282 215.98,96.5 227.291,85.188 "/>
<path style="fill:#F9E0D2;" d="M266.373,146.984c-19.778,19.778-18.728,38.59-18.712,61.207l-107.47-107.469
	c-12.446-12.446-32.81-12.445-45.255,0c-12.445,12.445-12.446,32.81,0,45.255l49.599,49.599c-16.815-1.717-31.866,9.59-34.62,26.406
	l-20.522,76.933c-2.817,10.646-0.102,22.434,8.226,30.762l37.211,37.211c40.458,40.458,106.032,40.458,146.49,0
	c19.595-19.595,29.608-45.086,30.207-70.755l0.102-154.918C311.666,119.969,281.586,131.772,266.373,146.984z"/>
<g>
	<path style="fill:#F6D2BF;" d="M176.361,182.102l-59.85-59.85c-13.337-13.337-35.936,4.13-25.06,19.539
		c1.033,1.463,2.202,2.857,3.509,4.164l49.803,49.803h25.941C177.832,195.758,181.401,187.141,176.361,182.102z"/>
	<path style="fill:#F6D2BF;" d="M247.661,208.192l20.001,20.001c5.04,5.04,13.657,1.47,13.657-5.657v-71.41
		c0-6.654-7.885-10.674-12.918-6.322C246.253,163.949,247.649,188.758,247.661,208.192z"/>
	<path style="fill:#F6D2BF;" d="M285.958,360.876c-41.206,18.71-90.603,13.315-126.932-16.101
		c-5.68-4.595-42.041-40.938-64.689-63.657l-0.161-0.136l-4.783,17.934c-2.817,10.646-0.102,22.434,8.226,30.762
		c6.498,6.498,38.691,39.147,45.364,44.546c42.586,34.484,106.388,30.309,143.73-13.286L285.958,360.876z"/>
</g>
<g>
</g>
<g>
</g>
<g>
</g>
<g>
</g>
<g>
</g>
<g>
</g>
<g>
</g>
<g>
</g>
<g>
</g>
<g>
</g>
<g>
</g>
<g>
</g>
<g>
</g>
<g>
</g>
<g>
</g>
</svg>
